<?xml version="1.0" encoding="UTF-8" standalone="no"?>
<!-- Created with Inkscape (http://www.inkscape.org/) -->

<svg
   xmlns:dc="http://purl.org/dc/elements/1.1/"
   xmlns:cc="http://creativecommons.org/ns#"
   xmlns:rdf="http://www.w3.org/1999/02/22-rdf-syntax-ns#"
   xmlns:svg="http://www.w3.org/2000/svg"
   xmlns="http://www.w3.org/2000/svg"
   xmlns:sodipodi="http://sodipodi.sourceforge.net/DTD/sodipodi-0.dtd"
   xmlns:inkscape="http://www.inkscape.org/namespaces/inkscape"
   width="32"
   height="32"
   viewBox="0 0 8.4666665 8.4666669"
   version="1.1"
   id="svg90"
   inkscape:version="0.92.2 5c3e80d, 2017-08-06"
   sodipodi:docname="delete-all.svg">
  <defs
     id="defs84" />
  <sodipodi:namedview
     id="base"
     pagecolor="#ffffff"
     bordercolor="#666666"
     borderopacity="1.0"
     inkscape:pageopacity="0.0"
     inkscape:pageshadow="2"
     inkscape:zoom="22.627417"
     inkscape:cx="17.980957"
     inkscape:cy="16.937073"
     inkscape:document-units="mm"
     inkscape:current-layer="layer1"
     showgrid="false"
     units="px"
     inkscape:window-width="1920"
     inkscape:window-height="963"
     inkscape:window-x="1680"
     inkscape:window-y="1"
     inkscape:window-maximized="1" />
  <metadata
     id="metadata87">
    <rdf:RDF>
      <cc:Work
         rdf:about="">
        <dc:format>image/svg+xml</dc:format>
        <dc:type
           rdf:resource="http://purl.org/dc/dcmitype/StillImage" />
        <dc:title></dc:title>
      </cc:Work>
    </rdf:RDF>
  </metadata>
  <g
     inkscape:label="1. réteg"
     inkscape:groupmode="layer"
     id="layer1"
     transform="translate(0,-288.53332)">
    <path
       style="stroke-width:3;stroke-miterlimit:4;stroke-dasharray:none"
       d="M 6.8476562 7.3574219 C 6.8446654 7.4176379 6.8300781 7.4741723 6.8300781 7.5351562 L 6.8300781 24.767578 C 6.8300781 26.74615 8.4237717 28.339844 10.402344 28.339844 L 21.517578 28.339844 C 23.49615 28.339844 25.089844 26.74615 25.089844 24.767578 L 25.089844 7.5351562 C 25.089844 7.4741723 25.075257 7.4176379 25.072266 7.3574219 L 6.8476562 7.3574219 z M 10.082031 9.8144531 L 13.175781 9.8144531 L 13.175781 24.751953 L 10.082031 24.751953 L 10.082031 9.8144531 z M 14.412109 9.8144531 L 17.505859 9.8144531 L 17.505859 24.751953 L 14.412109 24.751953 L 14.412109 9.8144531 z M 18.744141 9.8144531 L 21.837891 9.8144531 L 21.837891 24.751953 L 18.744141 24.751953 L 18.744141 9.8144531 z "
       transform="matrix(0.26458333,0,0,0.26458333,0,288.53332)"
       id="rect897" />
    <rect
       style="fill:#000000;fill-opacity:1;stroke-width:0.65503621;stroke-miterlimit:4;stroke-dasharray:none"
       id="rect901"
       width="6.1388469"
       height="0.67819643"
       x="1.1532792"
       y="289.65677" />
    <rect
       style="fill:#000000;fill-opacity:1;stroke-width:0.79374999;stroke-miterlimit:4;stroke-dasharray:none"
       id="rect922"
       width="5.261869"
       height="0.90036422"
       x="1.5917681"
       y="289.31766"
       ry="0.45018211" />
    <ellipse
       style="fill:none;fill-opacity:1;stroke:#000000;stroke-width:0.294;stroke-miterlimit:4;stroke-dasharray:none;stroke-opacity:1"
       id="path924"
       cx="4.2227025"
       cy="289.41705"
       rx="1.4207046"
       ry="0.41510299" />
  </g>
</svg>
