<?xml version="1.0" encoding="UTF-8" standalone="no"?>
<svg
   xmlns:dc="http://purl.org/dc/elements/1.1/"
   xmlns:cc="http://creativecommons.org/ns#"
   xmlns:rdf="http://www.w3.org/1999/02/22-rdf-syntax-ns#"
   xmlns:svg="http://www.w3.org/2000/svg"
   xmlns="http://www.w3.org/2000/svg"
   xmlns:sodipodi="http://sodipodi.sourceforge.net/DTD/sodipodi-0.dtd"
   xmlns:inkscape="http://www.inkscape.org/namespaces/inkscape"
   version="1.1"
   style=""
   xml:space="preserve"
   width="552.4999989196658"
   height="552.4999989196657"
   id="svg26"
   sodipodi:docname="anki_crosswrd.svg"
   inkscape:version="0.92.2 5c3e80d, 2017-08-06"><metadata
     id="metadata32"><rdf:RDF><cc:Work
         rdf:about=""><dc:format>image/svg+xml</dc:format><dc:type
           rdf:resource="http://purl.org/dc/dcmitype/StillImage" /><dc:title></dc:title></cc:Work></rdf:RDF></metadata><defs
     id="defs30"><filter
       y="-0.15"
       height="1.3"
       x="-0.15"
       width="1.3"
       inkscape:menu-tooltip="Aquarelle paper effect which can be used for pictures as for objects"
       inkscape:menu="Textures"
       inkscape:label="Rough Paper"
       style="color-interpolation-filters:sRGB;"
       id="filter4934"><feTurbulence
         type="fractalNoise"
         baseFrequency="0.04"
         numOctaves="5"
         seed="0"
         result="result4"
         id="feTurbulence4920" /><feDisplacementMap
         in="SourceGraphic"
         in2="result4"
         yChannelSelector="G"
         xChannelSelector="R"
         scale="10"
         result="result3"
         id="feDisplacementMap4922" /><feDiffuseLighting
         lighting-color="rgb(233,230,215)"
         diffuseConstant="1"
         surfaceScale="2"
         result="result1"
         in="result4"
         id="feDiffuseLighting4926"><feDistantLight
           azimuth="235"
           elevation="40"
           id="feDistantLight4924" /></feDiffuseLighting><feComposite
         operator="in"
         in="result3"
         in2="result1"
         result="result2"
         id="feComposite4928" /><feComposite
         in2="result1"
         result="result5"
         operator="arithmetic"
         k1="1.7"
         id="feComposite4930" /><feBlend
         in="result5"
         in2="result3"
         mode="normal"
         id="feBlend4932" /></filter><filter
       inkscape:collect="always"
       style="color-interpolation-filters:sRGB"
       id="filter5371"
       x="-0.01214939"
       width="1.0242988"
       y="-0.011854239"
       height="1.0237085"><feGaussianBlur
         inkscape:collect="always"
         stdDeviation="0.9830763"
         id="feGaussianBlur5373" /></filter><filter
       inkscape:collect="always"
       style="color-interpolation-filters:sRGB"
       id="filter5375"
       x="-0.016951144"
       width="1.0339023"
       y="-0.016952356"
       height="1.0339047"><feGaussianBlur
         inkscape:collect="always"
         stdDeviation="0.8899775"
         id="feGaussianBlur5377" /></filter><filter
       inkscape:collect="always"
       style="color-interpolation-filters:sRGB"
       id="filter5379"
       x="-0.13349662"
       width="1.2669933"
       y="-0.13349662"
       height="1.2669933"><feGaussianBlur
         inkscape:collect="always"
         stdDeviation="0.8899775"
         id="feGaussianBlur5381" /></filter><filter
       inkscape:collect="always"
       style="color-interpolation-filters:sRGB"
       id="filter5383"
       x="-0.13349662"
       width="1.2669933"
       y="-0.13349662"
       height="1.2669933"><feGaussianBlur
         inkscape:collect="always"
         stdDeviation="0.8899775"
         id="feGaussianBlur5385" /></filter><filter
       inkscape:collect="always"
       style="color-interpolation-filters:sRGB"
       id="filter5387"
       x="-0.13349662"
       width="1.2669933"
       y="-0.13349662"
       height="1.2669933"><feGaussianBlur
         inkscape:collect="always"
         stdDeviation="0.8899775"
         id="feGaussianBlur5389" /></filter></defs><sodipodi:namedview
     pagecolor="#ffffff"
     bordercolor="#666666"
     borderopacity="1"
     objecttolerance="10"
     gridtolerance="10"
     guidetolerance="10"
     inkscape:pageopacity="0"
     inkscape:pageshadow="2"
     inkscape:window-width="1680"
     inkscape:window-height="945"
     id="namedview28"
     showgrid="false"
     inkscape:zoom="0.98291042"
     inkscape:cx="323.10969"
     inkscape:cy="276.25"
     inkscape:window-x="0"
     inkscape:window-y="1"
     inkscape:window-maximized="1"
     inkscape:current-layer="svg26" /><g
     id="g922"
     transform="matrix(0.90727541,0,0,0.90840612,25.681872,25.639002)"><rect
       ry="5.9059763"
       y="23.82696"
       x="15.118831"
       height="512.18701"
       width="523.70111"
       id="rect4656"
       style="opacity:1;fill:#fff6d5;fill-opacity:1;stroke:#000000;stroke-width:0.32650918;stroke-linecap:round;stroke-linejoin:round;stroke-miterlimit:4;stroke-dasharray:none;stroke-opacity:1;filter:url(#filter4934)" /><rect
       style="fill:none;stroke:none"
       class=""
       y="0"
       x="0"
       height="100%"
       width="100%"
       id="backgroundrect" /><g
       style="opacity:0.66000001"
       id="svg_1"
       class=""><g
         id="svg_2"><path
           d="M 396.69,196.965 H 348.2072 305.7848 V 154.543 106.06 c 0,-3.35137 -2.71503,-6.06034 -6.06034,-6.06034 h -48.4828 c -3.34531,0 -6.06034,2.70897 -6.06034,6.06034 v 48.4828 42.4224 H 202.75892 154.27612 105.793 57.3103 c -3.34531,0 -6.06034,2.70897 -6.06034,6.06034 v 48.4828 c 0,3.35137 2.71503,6.06034 6.06034,6.06034 h 42.4224 v 42.4224 48.4828 48.4828 48.4828 c 0,3.35137 2.71503,6.06034 6.06034,6.06034 h 48.4828 c 3.34531,0 6.06034,-2.70897 6.06034,-6.06034 v -48.4828 -48.4828 -48.4828 -42.4224 h 42.4224 42.4224 v 42.4224 48.4828 c 0,3.35137 2.71503,6.06034 6.06034,6.06034 h 48.4828 c 3.34531,0 6.06034,-2.70897 6.06034,-6.06034 v -48.4828 -42.4224 h 42.4224 48.4828 c 3.34531,0 6.06034,-2.70897 6.06034,-6.06034 v -48.4828 c 0,-3.35154 -2.715,-6.06054 -6.06,-6.06054 z M 99.7328,245.448 H 63.3707 v -36.3621 h 36.3621 z m 48.4822,193.931 h -36.362 v -36.3621 h 36.3621 v 36.3621 z m 0,-48.482 h -36.362 v -36.3621 h 36.3621 v 36.3621 z m 0,-48.483 h -36.362 v -36.3621 h 36.3621 v 36.3621 z m 0,-48.483 h -36.362 v -36.3621 h 36.3621 v 36.3621 z m 0,-48.483 h -36.362 v -36.3621 h 36.3621 v 36.3621 z m 48.483,0 h -36.3621 v -36.3621 h 36.3621 z m 48.483,0 h -36.3621 v -36.3621 h 36.3621 z m 48.483,96.966 h -36.3621 v -36.3621 h 36.3621 z m 0,-48.483 h -36.3621 v -36.3621 h 36.3621 z m 0,-48.483 h -36.3621 v -36.3621 h 36.3621 z m 0,-48.483 h -36.3621 v -36.362 h 36.3621 z m 0,-48.482 h -36.3621 v -36.362 h 36.3621 z m 48.483,96.965 h -36.3621 v -36.3621 h 36.3621 z m 48.482,0 h -36.3621 v -36.3621 h 36.3621 z"
           id="svg_3"
           inkscape:connector-curvature="0" /></g></g><g
       style="opacity:1;filter:url(#filter5371)"
       id="svg_16"
       class=""
       transform="rotate(52.889,432.151,197.567)"><g
         id="svg_17"><path
           d="m 432.152,220.946 -74.4525,-21.4833 v 21.1357 14.7445 c 0,16.5876 33.3447,30.0364 74.4749,30.0364 41.128,0 74.4784,-13.4488 74.4784,-30.0364 0,-0.13061 -0.0457,-0.26182 -0.0485,-0.38948 V 199.463 Z"
           id="svg_18"
           inkscape:connector-curvature="0" /><path
           d="m 307.361,174.764 26.598,8.91984 2.26664,-4.55108 9.77138,-0.77866 1.39321,1.35903 -8.38479,1.86405 -1.22205,3.39093 c -0.002,0 -18.9398,37.1167 -16.1584,55.2743 0,0 11.8208,6.61046 23.6366,0 l 3.14008,-49.6449 v -4.13235 l 17.5885,-3.71983 -1.24223,2.86788 -13.1138,3.9979 6.06519,2.03131 74.4525,21.4833 74.4519,-21.4833 50.338,-16.8781 -124.79,-45.0094 z"
           id="svg_19"
           inkscape:connector-curvature="0" /></g></g><g
       style="opacity:0.9;filter:url(#filter5383)"
       transform="translate(-15.826823,-2.1582031)"
       id="svg_4"
       class=""><g
         id="svg_5"><rect
           x="218.25"
           y="450.25"
           width="16"
           height="16"
           id="svg_6" /></g></g><g
       style="opacity:0.9;filter:url(#filter5387)"
       transform="translate(-15.826823,-2.1582031)"
       id="svg_7"
       class=""><g
         id="svg_8"><rect
           x="186.25"
           y="450.25"
           width="16"
           height="16"
           id="svg_9" /></g></g><g
       style="opacity:0.9;filter:url(#filter5379)"
       transform="translate(-15.826823,-2.1582031)"
       id="svg_10"
       class=""><g
         id="svg_11"><rect
           x="250.25"
           y="450.25"
           width="16"
           height="16"
           id="svg_12" /></g></g><g
       style="opacity:0.9;filter:url(#filter5375)"
       transform="translate(-15.826823,-2.1582031)"
       id="svg_13"
       class=""><g
         id="svg_14"><path
           d="m 380.073,325.25 c -5.65585,0 -10.971,2.20261 -14.9657,6.19717 l -9.1651,9.16975 -65.3317,65.3317 c -0.0467,0.0467 -0.0607,0.112 -0.10733,0.15866 -0.34532,0.37333 -0.63465,0.79798 -0.84931,1.27397 -0.0233,0.056 -0.0607,0.10267 -0.084,0.154 -0.009,0.0233 -0.028,0.0467 -0.0373,0.07 l -13.9997,37.3323 c -0.64398,1.71262 -0.224,3.64457 1.06864,4.94187 0.90053,0.89158 2.09653,1.36758 3.30853,1.36758 0.55065,0 1.10597,-0.098 1.63796,-0.29399 l 37.3323,-13.9997 c 0.0233,-0.009 0.042,-0.028 0.07,-0.0373 0.0607,-0.0233 0.10733,-0.0607 0.16799,-0.0887 0.47599,-0.20999 0.89131,-0.49932 1.26463,-0.83998 0.0467,-0.0467 0.112,-0.0607 0.15867,-0.10733 l 65.3317,-65.3317 9.1651,-9.16975 C 399.038,357.383 401.241,352.064 401.241,346.412 c 0,-11.67 -9.497,-21.162 -21.168,-21.162 z m -92.188,113.354 7.84913,-20.9294 13.085,13.085 z m 29.358,-12.622 -16.734,-16.734 58.733,-58.733 16.734,16.734 z m 71.197,-71.203 -5.865,5.871 -16.734,-16.734 5.86585,-5.87052 c 2.23528,-2.23061 5.20787,-3.46258 8.36711,-3.46258 6.52383,0 11.8344,5.31053 11.8344,11.8297 -0.001,3.1594 -1.23236,6.1314 -3.46836,8.3664 z"
           id="svg_15"
           inkscape:connector-curvature="0" /></g></g><flowRoot
       transform="matrix(1.389926,0,0,1.5538498,-10.088407,-45.50445)"
       style="font-style:normal;font-variant:normal;font-weight:normal;font-stretch:normal;font-size:96px;line-height:1.25;font-family:SignPainter;-inkscape-font-specification:SignPainter;letter-spacing:0px;word-spacing:0px;fill:#000000;fill-opacity:1;stroke:none"
       id="flowRoot4660"
       xml:space="preserve"><flowRegion
         style="font-style:normal;font-variant:normal;font-weight:normal;font-stretch:normal;font-size:96px;font-family:SignPainter;-inkscape-font-specification:SignPainter"
         id="flowRegion4662"><rect
           style="font-style:normal;font-variant:normal;font-weight:normal;font-stretch:normal;font-size:96px;font-family:SignPainter;-inkscape-font-specification:SignPainter"
           y="56.113281"
           x="35.970051"
           height="123.73698"
           width="189.92188"
           id="rect4664" /></flowRegion><flowPara
         style="font-style:normal;font-variant:normal;font-weight:normal;font-stretch:normal;font-size:96px;font-family:SignPainter;-inkscape-font-specification:SignPainter"
         id="flowPara4666">Anki</flowPara></flowRoot><flowRoot
       style="font-style:normal;font-weight:normal;font-size:40px;line-height:1.25;font-family:sans-serif;letter-spacing:0px;word-spacing:0px;fill:#000000;fill-opacity:1;stroke:none"
       id="flowRoot4964"
       xml:space="preserve"><flowRegion
         id="flowRegion4966"><rect
           y="209.08591"
           x="111.853"
           height="230.29311"
           width="36.362099"
           id="rect4968" /></flowRegion><flowPara
         id="flowPara4970" /></flowRoot><text
       transform="scale(1.1631299,0.8597492)"
       id="text4974"
       y="278.67029"
       x="99.337837"
       style="font-style:normal;font-weight:normal;font-size:37.38027573px;line-height:1.25;font-family:sans-serif;letter-spacing:0px;word-spacing:0px;fill:#000000;fill-opacity:1;stroke:none;stroke-width:0.93450719"
       xml:space="preserve"><tspan
         style="font-style:normal;font-variant:normal;font-weight:normal;font-stretch:normal;font-size:44.8563385px;font-family:SignPainter;-inkscape-font-specification:SignPainter;stroke-width:0.93450719"
         y="278.67029"
         x="99.337837"
         id="tspan4972"
         sodipodi:role="line">C</tspan><tspan
         style="font-style:normal;font-variant:normal;font-weight:normal;font-stretch:normal;font-size:44.8563385px;font-family:SignPainter;-inkscape-font-specification:SignPainter;stroke-width:0.93450719"
         id="tspan4976"
         y="334.74072"
         x="99.337837"
         sodipodi:role="line">R</tspan><tspan
         style="font-style:normal;font-variant:normal;font-weight:normal;font-stretch:normal;font-size:44.8563385px;font-family:SignPainter;-inkscape-font-specification:SignPainter;stroke-width:0.93450719"
         id="tspan4978"
         y="390.81113"
         x="99.337837"
         sodipodi:role="line">O</tspan><tspan
         style="font-style:normal;font-variant:normal;font-weight:normal;font-stretch:normal;font-size:44.8563385px;font-family:SignPainter;-inkscape-font-specification:SignPainter;stroke-width:0.93450719"
         id="tspan4980"
         y="446.88156"
         x="99.337837"
         sodipodi:role="line">S</tspan><tspan
         style="font-style:normal;font-variant:normal;font-weight:normal;font-stretch:normal;font-size:44.8563385px;font-family:SignPainter;-inkscape-font-specification:SignPainter;stroke-width:0.93450719"
         id="tspan4986"
         y="502.952"
         x="99.337837"
         sodipodi:role="line">S</tspan></text>
<flowRoot
       style="font-style:normal;font-weight:normal;font-size:40px;line-height:1.25;font-family:sans-serif;letter-spacing:0px;word-spacing:0px;fill:#000000;fill-opacity:1;stroke:none"
       id="flowRoot5017"
       xml:space="preserve"><flowRegion
         id="flowRegion5019"><rect
           y="112.121"
           x="257.30191"
           height="230.293"
           width="36.362099"
           id="rect5021" /></flowRegion><flowPara
         id="flowPara5023">WWWWW</flowPara></flowRoot><text
       transform="scale(1.0363119,0.96496045)"
       id="text5027"
       y="144.81804"
       x="252.47684"
       style="font-style:normal;font-weight:normal;font-size:37.84035873px;line-height:1.25;font-family:sans-serif;letter-spacing:0px;word-spacing:0px;fill:#000000;fill-opacity:1;stroke:none;stroke-width:0.94600868"
       xml:space="preserve"><tspan
         style="font-style:normal;font-variant:normal;font-weight:normal;font-stretch:normal;font-size:40.36304855px;font-family:SignPainter;-inkscape-font-specification:SignPainter;stroke-width:0.94600868"
         y="144.81804"
         x="252.47684"
         id="tspan5025"
         sodipodi:role="line">W</tspan><tspan
         style="font-style:normal;font-variant:normal;font-weight:normal;font-stretch:normal;font-size:40.36304855px;font-family:SignPainter;-inkscape-font-specification:SignPainter;stroke-width:0.94600868"
         id="tspan5029"
         y="195.27185"
         x="252.47684"
         sodipodi:role="line">O</tspan><tspan
         style="font-style:normal;font-variant:normal;font-weight:normal;font-stretch:normal;font-size:40.36304855px;font-family:SignPainter;-inkscape-font-specification:SignPainter;stroke-width:0.94600868"
         id="tspan5031"
         y="245.72566"
         x="252.47684"
         sodipodi:role="line">R</tspan><tspan
         style="font-style:normal;font-variant:normal;font-weight:normal;font-stretch:normal;font-size:40.36304855px;font-family:SignPainter;-inkscape-font-specification:SignPainter;stroke-width:0.94600868"
         id="tspan5033"
         y="296.17947"
         x="252.47684"
         sodipodi:role="line">D</tspan><tspan
         style="font-style:normal;font-variant:normal;font-weight:normal;font-stretch:normal;font-size:40.36304855px;font-family:SignPainter;-inkscape-font-specification:SignPainter;stroke-width:0.94600868"
         id="tspan5035"
         y="346.63327"
         x="252.47684"
         sodipodi:role="line">S</tspan></text>
</g></svg>